<?xml version="1.0" encoding="UTF-8" standalone="no"?>
<!DOCTYPE svg PUBLIC "-//W3C//DTD SVG 1.1//EN" "http://www.w3.org/Graphics/SVG/1.1/DTD/svg11.dtd">
<svg width="100%" height="100%" viewBox="0 0 756 756" version="1.1" xmlns="http://www.w3.org/2000/svg" xmlns:xlink="http://www.w3.org/1999/xlink" xml:space="preserve" xmlns:serif="http://www.serif.com/" style="fill-rule:evenodd;clip-rule:evenodd;stroke-linecap:round;stroke-linejoin:round;stroke-miterlimit:1.5;">
    <g transform="matrix(0.732041,0,0,0.809765,-181.176665,-107.547394)">
        <path d="M572.294,458.634C555.015,529.973 356.869,848.076 348.272,782.603C326.681,618.17 606.661,427.512 749.789,407.93C774.232,404.586 760.024,434.41 515.952,608.968C950.668,568.97 297.097,805.142 348.755,764.953C506.605,642.144 1114.261,630.491 1181.769,629.196" style="fill:none;stroke:white;stroke-width:43.18px;"/>
    </g>
    <g transform="matrix(0.732041,0,0,0.809765,-181.176665,-107.547394)">
        <path d="M776.341,600.244C776.341,600.244 776.07,599.973 775.935,599.838" style="fill:none;stroke:white;stroke-width:43.18px;"/>
    </g>
    <g transform="matrix(0.732041,0,0,0.809765,-209.766035,-64.50547)">
        <path d="M1073.195,419.848C1075.051,418.823 1064.997,421.381 1066.853,420.356C1162.367,367.623 1164.119,369.482 1167.412,361.083C1186.553,312.273 748.75,553.154 933.315,530.383C977.38,524.946 1122.685,479.902 1118.555,511.427C1117.03,523.065 1092.348,538.829 1075.473,546.404C1029.608,566.99 950.746,593.177 843.364,634.948" style="fill:none;stroke:white;stroke-width:43.18px;"/>
    </g>
    <g transform="matrix(0.732041,0,0,0.809765,-184.104827,-115.645039)">
        <path d="M1132.97,586.936C1132.452,587 1131.417,587.128 1131.417,587.128" style="fill:none;stroke:white;stroke-width:43.18px;"/>
    </g>
</svg>
